HIERARCHY
ROOT Hips
{
  OFFSET 0 0 0
  CHANNELS 6 Xposition Yposition Zposition Zrotation Yrotation Xrotation
  JOINT LeftThigh
  {
    OFFSET 8.409438 0 -5.917753
    CHANNELS 3 Zrotation Yrotation Xrotation
    JOINT LeftLeg
    {
      OFFSET 0 0 -42.358652
      CHANNELS 3 Zrotation Yrotation Xrotation
      JOINT LeftFoot
      {
        OFFSET 0 0 -39.357303
        CHANNELS 3 Zrotation Yrotation Xrotation
      }
    }
  }
  JOINT RightThigh
  {
    OFFSET -8.409438 0 -5.917753
    CHANNELS 3 Zrotation Yrotation Xrotation
    JOINT RightLeg
    {
      OFFSET 0 0 -42.358652
      CHANNELS 3 Zrotation Yrotation Xrotation
      JOINT RightFoot
      {
        OFFSET 0 0 -39.357303
        CHANNELS 3 Zrotation Yrotation Xrotation
      }
    }
  }
  JOINT SpineLow
  {
    OFFSET 0 0 4.719101
    CHANNELS 3 Zrotation Yrotation Xrotation
    JOINT SpineMid
    {
      OFFSET 0 0 12.899191
      CHANNELS 3 Zrotation Yrotation Xrotation
      JOINT Chest
      {
        OFFSET 0 0 12.899191
        CHANNELS 3 Zrotation Yrotation Xrotation
        JOINT LeftShoulder
        {
          OFFSET 7.550562 1.41573 9.438202
          CHANNELS 3 Zrotation Yrotation Xrotation
          JOINT LeftArm
          {
            OFFSET 9.155056 0 4.247191
            CHANNELS 3 Zrotation Yrotation Xrotation
            JOINT LeftForearm
            {
              OFFSET 0 0 25.771955
              CHANNELS 3 Zrotation Yrotation Xrotation
              JOINT LeftHand
              {
                OFFSET 0 0 25.197169
                CHANNELS 3 Zrotation Yrotation Xrotation
              }
            }
          }
        }
        JOINT RightShoulder
        {
          OFFSET -7.550562 1.41573 9.438202
          CHANNELS 3 Zrotation Yrotation Xrotation
          JOINT RightArm
          {
            OFFSET -9.155056 0 4.247191
            CHANNELS 3 Zrotation Yrotation Xrotation
            JOINT RightForearm
            {
              OFFSET 0 0 -25.771955
              CHANNELS 3 Zrotation Yrotation Xrotation
              JOINT RightHand
              {
                OFFSET 0 0 -25.197169
                CHANNELS 3 Zrotation Yrotation Xrotation
              }
            }
          }
        }
        JOINT Neck
        {
          OFFSET 0 0 15.101124
          CHANNELS 3 Zrotation Yrotation Xrotation
          JOINT Head
          {
            OFFSET 0 0 11.325843
            CHANNELS 3 Zrotation Yrotation Xrotation
            End Site
            {
              OFFSET 0 0 14.157303
            }
          }
        }
      }
    }
  }
}
MOTION
Frames: 7
Frame Time: 0.0
0.0  101.685394  0.0  5.332448  2.458212  -112.024151  22.494955  -26.46905  -68.0959  35.641656  41.390798  116.669287  1.189979  -0.521023  -3.792934  -23.929566  5.059129  -17.82165  22.487942  4.430314  33.054394  30.855307  -3.793597  6.331557  -1.854548  2.835806  3.740847  -4.636406  8.012606  10.045358  -4.636406  8.012607  10.045358  -12.425068  -0.977838  12.0892  -19.605982  63.63099  28.811959  -34.013757  -25.078554  19.820314  66.598823  -14.15325  -6.109292  44.864255  3.681248  5.526176  -149.404191  80.244506  158.46837  -37.580119  12.40884  -45.799498  109.169461  -32.381998  -9.379551  3.58432  -4.826419  -0.754774  2.68068  -3.624391  -0.537401  
0.0  101.685394  0.0  5.678584  3.030667  -112.383525  24.096344  -25.475098  -71.061814  33.593298  38.268771  114.637521  -2.422918  -1.592685  -4.020504  -24.108563  5.622471  -17.524882  22.530511  4.501279  33.077496  30.907661  -3.779349  6.370847  -1.956841  2.917815  3.869683  -4.888359  8.260234  10.382178  -4.88836  8.260234  10.382178  -11.963723  -0.386337  11.419277  -17.356892  66.704497  30.742383  -35.26742  -27.991217  23.999219  66.288709  -13.135296  -4.159125  44.327288  3.376935  5.471261  -156.016387  82.750518  149.716396  -39.741699  13.105363  -48.835962  107.950021  -33.508053  -7.104242  3.750751  -4.779034  -0.948638  2.804004  -3.590262  -0.681705  
0.0  101.685394  0.0  5.793412  3.318157  -112.921465  25.625334  -24.931631  -73.709417  32.922885  37.042159  112.881487  -4.558853  -2.51231  -3.777726  -23.902797  6.04007  -16.772565  22.470208  4.582716  32.885573  30.805319  -3.789169  6.36446  -2.075828  2.896207  3.955661  -5.206395  8.226046  10.604088  -5.206395  8.226047  10.604087  -10.784163  0.802344  10.927596  -15.185586  70.445224  33.031377  -36.07908  -31.178149  28.666348  65.826845  -12.022157  -1.745503  43.99046  3.058333  5.82364  -178.67104  84.976445  124.708525  -41.870393  13.626989  -52.503047  106.379601  -34.995458  -4.120492  4.020516  -4.433379  -0.972031  3.006826  -3.331605  -0.699477  
0.0  101.685394  0.0  5.883486  3.572839  -113.562741  26.95272  -24.919742  -76.122645  33.448159  36.768558  111.834453  -6.29953  -3.354918  -3.679959  -23.563702  6.41  -15.822238  22.427609  4.669545  32.685391  30.618349  -3.751278  6.302997  -2.20691  2.842189  4.04312  -5.56233  8.106452  10.830527  -5.56233  8.106451  10.830526  -9.327845  2.230245  10.597242  -14.033933  74.853916  34.509695  -36.584563  -34.244784  33.836959  65.257148  -11.035641  1.03121  43.654643  2.71404  6.879487  140.967341  85.61082  81.982721  -43.512975  14.491604  -56.634735  104.792402  -36.822619  -0.785638  4.322925  -3.945267  -1.046688  3.234157  -2.966536  -0.756804  
0.0  101.685394  0.0  5.85113  3.870504  -114.168464  28.240858  -25.578579  -78.650015  35.415788  37.737398  111.682806  -7.012846  -4.025948  -3.502718  -23.177793  6.569666  -14.859808  22.253169  4.913866  32.49395  30.479142  -3.726407  6.25168  -2.290922  2.791356  4.106834  -5.792092  7.986778  10.997912  -5.792093  7.986778  10.997912  -8.005511  3.542326  10.573061  -13.87609  79.918442  35.047345  -37.342971  -36.812031  39.80985  64.769448  -10.275414  3.996191  42.913064  1.984385  8.224405  107.912198  83.827699  46.577298  -44.522495  16.184206  -60.6146  102.95679  -38.6603  2.967696  4.460277  -3.574534  -1.096473  3.337715  -2.689079  -0.796019  
0.0  101.685394  0.0  5.708045  4.02062  -114.591064  29.619252  -26.356525  -81.219748  38.338346  40.013155  112.204802  -6.161959  -4.563049  -3.112703  -22.602891  6.535098  -14.053284  22.103597  5.043286  32.394301  30.204251  -3.647492  6.177467  -2.293308  2.729007  4.140169  -5.804168  7.820156  11.092974  -5.804168  7.820157  11.092974  -6.726842  4.947685  10.978147  -13.283871  85.247065  36.075935  -39.024741  -38.606694  46.894523  64.55482  -9.641387  6.816208  41.692297  0.897407  9.517077  95.600402  80.483082  31.967208  -45.044745  18.848043  -64.09188  100.886313  -40.461808  7.034944  4.356631  -3.366107  -1.176295  3.260063  -2.533126  -0.857999  
0.0  101.685394  0.0  5.46492  3.977411  -114.735905  31.10575  -26.678509  -83.691739  41.358539  42.778054  113.137016  -4.234124  -5.110403  -2.543579  -21.822922  6.293708  -13.45052  21.671516  5.270476  32.22507  30.096151  -3.668312  6.102409  -2.24672  2.649004  4.084128  -5.695882  7.590106  10.949853  -5.695881  7.590106  10.949853  -5.320408  6.679366  12.190779  91.995521  89.407776  141.800113  -41.761518  -39.345378  54.502586  64.282276  -9.040542  9.342217  40.145762  -0.549735  11.521753  91.998566  76.991177  25.881453  -44.858401  22.619942  -66.819755  98.540426  -42.00012  11.19688  4.085401  -3.32086  -1.177892  3.056799  -2.498659  -0.860996  
